<?xml version="1.0" encoding="UTF-8" standalone="no"?>
<!-- Uploaded to: SVG Repo, www.svgrepo.com, Generator: SVG Repo Mixer Tools -->

<svg
   width="800px"
   height="800px"
   viewBox="0 0 512 512"
   version="1.1"
   id="svg51"
   sodipodi:docname="claw-control-icon.svg"
   inkscape:version="1.2.2 (b0a8486541, 2022-12-01)"
   xmlns:inkscape="http://www.inkscape.org/namespaces/inkscape"
   xmlns:sodipodi="http://sodipodi.sourceforge.net/DTD/sodipodi-0.dtd"
   xmlns="http://www.w3.org/2000/svg"
   xmlns:svg="http://www.w3.org/2000/svg">
  <defs
     id="defs55" />
  <sodipodi:namedview
     id="namedview53"
     pagecolor="#ffffff"
     bordercolor="#000000"
     borderopacity="0.25"
     inkscape:showpageshadow="2"
     inkscape:pageopacity="0.0"
     inkscape:pagecheckerboard="0"
     inkscape:deskcolor="#d1d1d1"
     showgrid="false"
     inkscape:zoom="0.7675"
     inkscape:cx="400"
     inkscape:cy="400"
     inkscape:window-width="1918"
     inkscape:window-height="816"
     inkscape:window-x="0"
     inkscape:window-y="0"
     inkscape:window-maximized="1"
     inkscape:current-layer="svg51" />
  <path
     fill="#000000"
     d="m 11.706389,225.25007 50.988294,80.55408 c -6.586095,22.48611 -9.356016,44.13187 -7.481507,63.71435 2.762691,28.86609 14.815754,53.16378 39.68475,71.43099 24.183274,17.76113 61.321584,29.6304 114.332594,31.42704 62.81886,-72.50133 74.17262,-168.82788 100.47844,-237.56173 13.35194,-34.88628 31.64352,-63.78373 64.34896,-75.29275 29.03752,-10.22092 67.06748,-6.34554 120.07091,14.3869 -18.4351,-42.2928 -41.18239,-71.11694 -66.16796,-89.305642 -28.81336,-20.977317 -60.76385,-28.268651 -94.34625,-25.481411 -16.08449,1.337493 -32.51948,5.110871 -48.9645,10.883289 L 261.7539,42.312474 252.42928,83.843975 c -9.52405,4.82737 -18.97009,10.246277 -28.27505,16.210355 l -56.41791,-20.983993 15.90911,51.010443 c -10.27495,8.69061 -20.20289,17.94981 -29.68262,27.67212 l -67.26565,-25.02621 24.03422,77.04056 c -5.42933,7.7178 -10.56381,15.51577 -15.317199,23.40324 l -83.711353,-7.92224 z m 290.804441,96.80582 c -11.13989,38.27451 -24.70976,79.67626 -47.54075,118.51198 122.59092,9.50377 293.81681,-82.19863 195.9771,-191.90361 -15.9837,105.48487 -87.57462,62.23353 -148.43681,73.39252 z"
     id="path49"
     style="fill:#aa0000;stroke:#000000;stroke-width:6.4;stroke-dasharray:none;stroke-opacity:1" />
</svg>
